<svg xmlns="http://www.w3.org/2000/svg" xmlns:xlink="http://www.w3.org/1999/xlink" width="180" height="180" viewBox="0 0 180 180">
  <defs>
    <path id="logo-a" d="M52.4050633,0 L127.594937,0 C156.537454,-5.31665417e-15 180,23.462546 180,52.4050633 L180,127.594937 C180,156.537454 156.537454,180 127.594937,180 L52.4050633,180 C23.462546,180 3.54443611e-15,156.537454 0,127.594937 L0,52.4050633 C-3.54443611e-15,23.462546 23.462546,5.31665417e-15 52.4050633,0 Z"/>
  </defs>
  <g fill="none" fill-rule="evenodd">
    <mask id="logo-b" fill="#fff">
      <use xlink:href="#logo-a"/>
    </mask>
    <use fill="#CA5454" fill-rule="nonzero" xlink:href="#logo-a"/>
    <polygon fill="#000" fill-opacity=".2" fill-rule="nonzero" points="139 237 51.181 134.004 63.515 59.094 68 64 78.277 31.207 107.892 30.069 238 164" mask="url(#logo-b)"/>
    <g fill-rule="nonzero" mask="url(#logo-b)">
      <g transform="translate(48 22)">
        <path fill="#242424" d="M68.185654,37.093708 L70.8860759,37.093708 C78.3430852,37.093708 84.3881857,43.1972892 84.3881857,50.7264383 L84.3881857,103.21245 C84.3881857,110.741599 78.3430852,116.84518 70.8860759,116.84518 L13.5021097,116.84518 C6.04510042,116.84518 9.59382597e-15,110.741599 0,103.21245 L0,50.7264383 C0,43.1972892 6.04510042,37.093708 13.5021097,37.093708 L15.5274262,37.093708 L15.5274262,38.1161628 C15.5274262,42.4454234 19.0033589,45.9549827 23.2911392,45.9549827 C27.5789196,45.9549827 31.0548523,42.4454234 31.0548523,38.1161628 L31.0548523,37.093708 L52.6582278,37.093708 L52.6582278,38.1161628 C52.6582278,42.4454234 56.1341606,45.9549827 60.4219409,45.9549827 C64.7097213,45.9549827 68.185654,42.4454234 68.185654,38.1161628 L68.185654,37.093708 Z M48.3825598,76.758498 C49.7790994,75.3281387 50.6329114,73.4128016 50.6329114,71.3080169 C50.6329114,66.8804176 46.8547236,63.2911392 42.1940928,63.2911392 C37.533462,63.2911392 33.7552743,66.8804176 33.7552743,71.3080169 C33.7552743,73.4128016 34.6090863,75.3281387 36.0056259,76.758498 L36.0056259,89.4796062 C36.0056259,92.7265123 38.7762969,95.3586498 42.1940928,95.3586498 C45.6118887,95.3586498 48.3825598,92.7265123 48.3825598,89.4796062 L48.3825598,76.758498 Z"/>
        <path fill="#DFDFDF" d="M28.6813849,38.8179858 L28.670303,38.8179858 C28.4964667,41.4800933 26.2991765,43.5851069 23.6141195,43.5851069 C20.9290624,43.5851069 18.7317722,41.4800933 18.5579359,38.8179858 L18.546854,38.8179858 L18.546854,23.8356053 C18.546854,10.671564 29.1340834,0 42.1940928,0 C55.2541022,0 65.8413317,10.671564 65.8413317,23.8356053 L65.8413317,38.8179858 L65.8302497,38.8179858 C65.6564134,41.4800933 63.4591232,43.5851069 60.7740662,43.5851069 C58.0890092,43.5851069 55.891719,41.4800933 55.7178827,38.8179858 L55.7068007,38.8179858 L55.7068007,23.8356053 C55.7068007,16.313296 49.6569553,10.2152594 42.1940928,10.2152594 C34.7312303,10.2152594 28.6813849,16.313296 28.6813849,23.8356053 L28.6813849,38.8179858 Z"/>
      </g>
    </g>
  </g>
</svg>
